Coordinates
version=1
nRows=54
nColumns=12
inDegrees=yes

Units are S.I. units (second, meters, Newtons, ...)
Angles are in degrees

endheader
time	SC_y	SC_z	SC_x	AC_y	AC_z	AC_x	GH_y	GH_z	GH_yy	EL_x	PS_y
       0.0              -18.93          27.89         0.7324          45.26         -10.77         -19.27          40.52          29.53         -114.2          24.81          29.19
   0.03627              -18.93          27.88         0.7398          45.26         -10.77         -19.26           40.5          29.53         -114.2          24.81           29.2
   0.07254              -18.94          27.88         0.7476          45.26         -10.77         -19.26          40.48          29.53         -114.2          24.81           29.2
    0.1088              -18.95          27.88          0.756          45.26         -10.77         -19.26          40.46          29.53         -114.2          24.81          29.21
    0.1451              -18.95          27.87         0.7648          45.26         -10.76         -19.25          40.44          29.53         -114.2          24.81          29.21
    0.1813              -18.96          27.87         0.7743          45.25         -10.76         -19.25          40.42          29.53         -114.2           24.8          29.22
    0.2176              -18.97          27.86         0.7844          45.25         -10.76         -19.25           40.4          29.53         -114.2           24.8          29.23
    0.2539              -18.97          27.86         0.7952          45.25         -10.75         -19.24          40.37          29.53         -114.2           24.8          29.23
    0.2902              -18.98          27.85         0.8068          45.25         -10.75         -19.24          40.34          29.54         -114.2           24.8          29.24
    0.3264              -18.99          27.85         0.8192          45.25         -10.74         -19.23          40.31          29.54         -114.2           24.8          29.25
    0.3627               -19.0          27.84         0.8326          45.24         -10.74         -19.23          40.28          29.54         -114.1           24.8          29.25
     0.399              -19.01          27.84         0.8469          45.24         -10.73         -19.22          40.25          29.54         -114.1           24.8          29.26
    0.4352              -19.02          27.83         0.8624          45.24         -10.73         -19.22          40.21          29.54         -114.1           24.8          29.27
    0.4715              -19.03          27.82         0.8791          45.23         -10.72         -19.21          40.17          29.54         -114.1           24.8          29.28
    0.5078              -19.05          27.81         0.8972          45.23         -10.72          -19.2          40.12          29.55         -114.1           24.8          29.29
     0.544              -19.06           27.8         0.9168          45.23         -10.71          -19.2          40.08          29.55         -114.1          24.79          29.31
    0.5803              -19.08          27.79         0.9382          45.22          -10.7         -19.19          40.03          29.55         -114.1          24.79          29.32
    0.6166              -19.09          27.78         0.9614          45.22          -10.7         -19.18          39.97          29.56         -114.1          24.79          29.33
    0.6528              -19.11          27.77         0.9867          45.21         -10.69         -19.17          39.91          29.56         -114.1          24.79          29.35
    0.6891              -19.13          27.76          1.015          45.21         -10.68         -19.16          39.84          29.56         -114.1          24.79          29.36
    0.7254              -19.15          27.75          1.045           45.2         -10.67         -19.15          39.77          29.57         -114.0          24.78          29.38
    0.7616              -19.18          27.73          1.079           45.2         -10.66         -19.13          39.69          29.57         -114.0          24.78           29.4
    0.7979              -19.21          27.71          1.116          45.19         -10.64         -19.12           39.6          29.57         -114.0          24.78          29.43
    0.8342              -19.23          27.69          1.157          45.18         -10.63          -19.1           39.5          29.58         -114.0          24.77          29.45
    0.8705              -19.27          27.67          1.202          45.17         -10.61         -19.09          39.39          29.59         -114.0          24.77          29.48
    0.9067               -19.3          27.65          1.253          45.16          -10.6         -19.07          39.27          29.59         -113.9          24.77          29.51
     0.943              -19.35          27.62           1.31          45.15         -10.58         -19.04          39.13           29.6         -113.9          24.76          29.54
    0.9793              -19.39           27.6          1.375          45.14         -10.56         -19.02          38.98          29.61         -113.9          24.76          29.58
     1.016              -19.44          27.56          1.447          45.12         -10.53         -18.99          38.81          29.62         -113.9          24.75          29.63
     1.052               -19.5          27.52          1.529          45.11          -10.5         -18.96          38.61          29.63         -113.8          24.75          29.68
     1.088              -19.57          27.48          1.623          45.09         -10.47         -18.92          38.38          29.64         -113.8          24.74          29.73
     1.124              -19.65          27.43          1.731          45.07         -10.44         -18.88          38.12          29.65         -113.7          24.73           29.8
     1.161              -19.74          27.38          1.856          45.05         -10.39         -18.83          37.82          29.67         -113.7          24.72          29.87
     1.197              -19.84          27.31          2.001          45.02         -10.35         -18.78          37.48          29.69         -113.6          24.71          29.96
     1.233              -19.97          27.23           2.17          44.98         -10.29         -18.71          37.07          29.71         -113.5           24.7          30.06
     1.269              -20.11          27.14           2.37          44.95         -10.22         -18.64          36.59          29.74         -113.4          24.68          30.18
     1.306              -20.28          27.03          2.607           44.9         -10.14         -18.54          36.02          29.77         -113.3          24.66          30.33
     1.342              -20.49           26.9          2.891          44.85         -10.05         -18.44          35.34           29.8         -113.2          24.64           30.5
     1.378              -20.74          26.75          3.235          44.78         -9.929          -18.3          34.52          29.85         -113.0          24.61          30.71
     1.414              -21.04          26.56          3.656           44.7         -9.787         -18.14          33.51           29.9         -112.8          24.58          30.96
     1.451              -21.41          26.32          4.174           44.6         -9.612         -17.94          32.26          29.97         -112.5          24.54          31.28
     1.487              -21.88          26.03          4.821          44.47         -9.394         -17.69          30.71          30.05         -112.2          24.49          31.67
     1.523              -22.47          25.65          5.636          44.32         -9.119         -17.38          28.76          30.16         -111.8          24.43          32.16
      1.56              -23.22          25.18          6.672          44.12         -8.769         -16.98          26.27          30.29         -111.3          24.35          32.79
     1.596              -24.17          24.58          7.998          43.86         -8.322         -16.47          23.09          30.46         -110.7          24.24          33.59
     1.632               -25.4           23.8          9.699          43.54         -7.748         -15.81          19.01          30.68         -109.9          24.11          34.62
     1.668              -26.97          22.81          11.87          43.12         -7.015         -14.98          13.79          30.96         -108.8          23.94          35.93
     1.705              -28.95          21.57           14.6          42.59         -6.093         -13.92          7.237          31.31         -107.5          23.73          37.59
     1.741              -31.35          20.05          17.93          41.95         -4.969         -12.64        -0.7528          31.74         -105.9          23.47           39.6
     1.777              -34.14          18.29          21.79          41.21         -3.667         -11.16         -10.01          32.23         -104.1          23.17          41.94
     1.813              -37.16          16.39          25.97           40.4         -2.256         -9.547         -20.04          32.77         -102.0          22.84          44.47
      1.85              -40.18          14.49          30.15           39.6         -0.846         -7.937         -30.07          33.31         -100.0          22.52          46.99
     1.886              -42.96          12.73          34.01          38.85         0.4565         -6.451         -39.33          33.81         -98.18          22.22          49.33
     1.922              -45.37          11.21          37.34          38.21           1.58         -5.169         -47.32          34.23         -96.58          21.96          51.35
